/* XPM */
static char *_dea20a241c849fd9eb1825ef341ca3diWind3FImxZCuRo0[] = {
/* columns rows colors chars-per-pixel */
"16 16 2 1 ",
"  c #FFEFE3",
". c #FCDFCD",
/* pixels */
"................",
"................",
"........  ......",
".......    .....",
".......    .  ..",
".....         ..",
".. .           .",
"................",
"................",
".....  .........",
"....    ........",
"....    ........",
"..        ..  ..",
".          .  ..",
"................",
"................"
};
