/* XPM */
static char *_87ed2ebafb44409aaf6a9acd99e167bjR31UtR2cAHYW69g[] = {
/* columns rows colors chars-per-pixel */
"16 16 2 1 ",
". c #FCDFCD",
"o c #FF0000",
/* pixels */
"oooooooooooooooo",
"oooooooooooooooo",
"oooooooooooooooo",
"oooo............",
"oooo............",
"oooo............",
"oooooooooooooooo",
"oooooooooooooooo",
"oooooooooooooooo",
"oooooooooooooooo",
"oooo............",
"oooo............",
"oooo............",
"oooooooooooooooo",
"oooooooooooooooo",
"oooooooooooooooo"
};
